<svg xmlns="http://www.w3.org/2000/svg" width="1001" height="334" viewBox="0 0 1001 334" fill="none" stroke="#FFF" stroke-opacity="0.2">
    <path d="M357.105 202.702C350.486 198.986 342.938 196.896 334.809 196.896H267.341C242.142 196.896 221.82 217.333 221.82 242.416V287.937H334.925C360.124 287.937 380.446 267.499 380.446 242.416C380.446 236.378 379.285 230.572 377.078 225.23" stroke-width="2.4548" stroke-miterlimit="10" stroke-linecap="round" stroke-linejoin="round"/>
    <path d="M296.484 300.942C298.342 318.361 313.09 331.948 330.973 331.948H417.137V297.227C417.137 278.066 401.577 262.505 382.416 262.505H330.973C318.548 262.505 307.632 269.008 301.594 278.763" stroke-width="2.4548" stroke-miterlimit="10" stroke-linecap="round" stroke-linejoin="round"/>
    <path d="M497.147 176.922C504.329 176.922 510.152 171.099 510.152 163.916C510.152 156.733 504.329 150.91 497.147 150.91C489.964 150.91 484.141 156.733 484.141 163.916C484.141 171.099 489.964 176.922 497.147 176.922Z" stroke-width="2.4548" stroke-miterlimit="10" stroke-linecap="round" stroke-linejoin="round"/>
    <path d="M456.395 132.098C465.917 122.46 478.807 116.073 493.438 115.144C511.089 113.983 527.463 121.066 538.727 133.027" stroke-width="2.4548" stroke-miterlimit="10" stroke-linecap="round" stroke-linejoin="round"/>
    <path d="M539.652 88.7837C549.175 93.6609 557.768 100.048 565.084 107.828C565.084 107.828 587.263 134.653 610.372 134.653C616.759 134.653 631.623 130.588 631.739 113.17" stroke-width="2.4548" stroke-miterlimit="10" stroke-linecap="round" stroke-linejoin="round"/>
    <path d="M430.027 107.015C448.956 87.5061 475.896 77.055 502.953 78.6807C510.501 79.1452 518.05 80.5387 525.365 82.8612" stroke-width="2.4548" stroke-miterlimit="10" stroke-linecap="round" stroke-linejoin="round"/>
    <path d="M462.535 43.2627C498.998 33.5083 538.597 39.779 570.182 60.5652C578.776 66.2553 586.672 72.7583 593.756 80.3064" stroke-width="2.4548" stroke-miterlimit="10" stroke-linecap="round" stroke-linejoin="round"/>
    <path d="M593.42 292.001H635.689C643.237 292.001 649.392 285.846 649.392 278.298V256.234C649.392 248.686 643.237 242.532 635.689 242.532H596.671C589.123 242.532 582.969 248.686 582.969 256.234V274.466" stroke-width="2.4548" stroke-miterlimit="10" stroke-linecap="round" stroke-linejoin="round"/>
    <path d="M681.673 244.622L662.396 254.377C661.351 254.957 660.654 256.002 660.654 257.163V277.253C660.654 278.414 661.351 279.575 662.396 280.04L681.673 289.794C683.763 290.84 686.202 289.33 686.202 287.007V247.409C686.318 245.087 683.763 243.577 681.673 244.622Z" stroke-width="2.4548" stroke-miterlimit="10" stroke-linecap="round" stroke-linejoin="round"/>
    <path d="M173.174 220.352C173.174 216.985 170.503 214.314 167.135 214.314H69.3588C65.9912 214.314 63.3203 216.985 63.3203 220.352V283.408C63.3203 286.892 65.875 289.795 69.1265 289.795H167.368C170.503 289.795 173.174 286.892 173.174 283.408V241.719" stroke-width="2.4548" stroke-miterlimit="10" stroke-linecap="round" stroke-linejoin="round"/>
    <path d="M441.066 147.426C441.066 147.426 432.589 154.51 421.209 176.922C408.086 202.934 394.5 214.43 343.521 214.43H199.992C183.386 214.43 173.283 220.468 173.283 220.468L122.072 256.699C119.866 258.441 116.963 258.441 114.757 256.699L63.4297 220.468C63.4297 220.468 55.4172 214.546 42.7596 214.43H2" stroke-width="2.4548" stroke-miterlimit="10" stroke-linecap="round" stroke-linejoin="round"/>
    <path d="M448.039 48.0239C430.504 54.9914 416.453 67.8812 401.357 79.2614C382.893 93.0801 371.513 89.9448 363.5 86.2288C356.997 83.2096 346.546 73.4551 346.546 73.4551C337.953 64.8619 326.108 59.5202 312.986 59.5202C294.29 59.5202 278.033 70.4359 270.369 86.1127C268.627 85.8804 266.769 85.6482 265.027 85.6482C245.983 85.6482 230.654 101.093 230.654 120.021C230.654 138.949 246.099 154.394 265.027 154.394H357.926V154.278" stroke-width="2.4548" stroke-miterlimit="10" stroke-linecap="round" stroke-linejoin="round"/>
    <path d="M631.742 113.17L631.626 105.505C631.394 87.1578 645.793 72.2939 663.676 72.2939C681.675 72.2939 696.423 87.1579 696.655 105.389V123.969" stroke-width="2.4548" stroke-miterlimit="10" stroke-linecap="round" stroke-linejoin="round"/>
    <path d="M618.498 155.671L619.079 190.624C619.079 194.805 622.446 198.056 626.511 198.056L702.92 197.94C706.985 197.94 710.236 194.573 710.12 190.392L709.307 131.053C709.307 126.872 705.94 123.621 701.875 123.621H646.019" stroke-width="2.4548" stroke-miterlimit="10" stroke-linecap="round" stroke-linejoin="round"/>
    <path d="M653.111 153.697C652.995 147.543 657.872 142.433 664.027 142.433C670.066 142.433 675.059 147.426 675.175 153.581C675.175 157.762 673.085 161.361 669.833 163.335L670.066 179.128H659.034L658.801 163.335C655.434 161.477 653.228 157.878 653.111 153.697Z" stroke-width="2.4548" stroke-miterlimit="10" stroke-linecap="round" stroke-linejoin="round"/>
    <path d="M252.239 147.078C252.239 130.936 265.361 117.814 281.502 117.814C283.012 117.814 284.638 117.931 286.031 118.163C292.534 104.808 306.353 95.5186 322.262 95.5186C342.816 95.5186 359.886 110.963 362.325 130.936C373.24 132.562 381.718 142.084 381.718 153.465C381.718 165.541 372.311 175.412 360.467 176.225V176.341H281.386L143.314 175.412" stroke-width="2.4548" stroke-miterlimit="10" stroke-linecap="round" stroke-linejoin="round"/>
    <path d="M593.421 292.001C593.421 292.001 545.462 291.072 537.565 292.001C529.669 292.93 521.888 299.781 521.888 299.781L498.431 323.238L478.69 303.613V280.156L490.419 268.428L474.742 252.751L490.419 237.074L474.742 221.397L474.51 204.327" stroke-width="2.4548" stroke-miterlimit="10" stroke-linecap="round" stroke-linejoin="round"/>
    <path d="M544.063 151.026C549.637 171.813 540.58 193.644 522 204.444L521.768 278.763" stroke-width="2.4548" stroke-miterlimit="10" stroke-linecap="round" stroke-linejoin="round"/>
    <path d="M664.375 154.394H748.101" stroke-width="2.4548" stroke-miterlimit="10" stroke-linecap="round" stroke-linejoin="round"/>
    <path d="M593.42 154.394V205.604C593.42 215.01 601.084 222.675 610.49 222.675H852.145" stroke-width="2.4548" stroke-miterlimit="10" stroke-linecap="round" stroke-linejoin="round"/>
    <path d="M957.239 218.378V197.127H939.704V218.378H929.021L948.529 236.145L967.922 218.378H957.239Z" stroke-width="2.4548" stroke-miterlimit="10" stroke-linecap="round" stroke-linejoin="round"/>
    <path d="M715.112 268.08H998.92" stroke-width="2.4548" stroke-miterlimit="10" stroke-linecap="round" stroke-linejoin="round"/>
    <path d="M571.012 319.871H854.819" stroke-width="2.4548" stroke-miterlimit="10" stroke-linecap="round" stroke-linejoin="round"/>
    <path d="M188.852 129.427H83.0625" stroke-width="2.4548" stroke-miterlimit="10" stroke-linecap="round" stroke-linejoin="round"/>
    <path d="M863.756 143.362H925.186" stroke-width="2.4548" stroke-miterlimit="10" stroke-linecap="round" stroke-linejoin="round"/>
    <path d="M973.49 239.281V250.196H815.909" stroke-width="2.4548" stroke-miterlimit="10" stroke-linecap="round" stroke-linejoin="round"/>
    <path d="M759.83 184.354C766.449 184.354 772.604 182.148 777.597 178.548C784.913 173.09 789.79 164.381 789.79 154.51C789.79 138.02 776.436 124.666 759.946 124.666C750.888 124.666 742.76 128.73 737.302 135.001" stroke-width="2.4548" stroke-miterlimit="10" stroke-linecap="round" stroke-linejoin="round"/>
    <path d="M759.812 102.834C768.637 102.834 776.882 105.041 784.198 108.873C800.455 117.582 811.487 134.769 811.487 154.394C811.487 168.212 806.029 180.754 797.204 190.044C787.797 199.914 774.559 206.069 759.812 206.069" stroke-width="2.4548" stroke-miterlimit="10" stroke-linecap="round" stroke-linejoin="round"/>
    <path d="M720.925 82.7451C732.537 76.4744 745.775 72.8745 759.826 72.8745C804.883 72.8745 841.462 109.454 841.462 154.51C841.462 165.077 839.488 175.064 835.888 184.354" stroke-width="2.4548" stroke-miterlimit="10" stroke-linecap="round" stroke-linejoin="round"/>
    <path d="M372.906 52.3205C372.906 52.3205 483.573 -60.9006 618.509 52.3205" stroke-width="2.4548" stroke-miterlimit="10" stroke-linecap="round" stroke-linejoin="round"/>
    <path d="M202.545 116.654C202.545 85.0678 228.208 59.4043 259.794 59.4043" stroke-width="2.4548" stroke-miterlimit="10" stroke-linecap="round" stroke-linejoin="round"/>
</svg>
